<svg width="25" height="25" viewBox="0 0 25 25" fill="none" xmlns="http://www.w3.org/2000/svg">
<path d="M11.5729 23.9583C11.4521 23.9582 11.3323 23.937 11.2187 23.8958C10.9997 23.8156 10.814 23.6643 10.6912 23.466C10.5684 23.2676 10.5158 23.0339 10.5417 22.8021L11.3437 15.4167H5.20833C5.01909 15.417 4.83335 15.3657 4.67105 15.2684C4.50876 15.171 4.37604 15.0313 4.28715 14.8643C4.19827 14.6972 4.15657 14.5091 4.16654 14.3201C4.17651 14.1311 4.23777 13.9484 4.34375 13.7917L12.5625 1.5C12.6925 1.30764 12.883 1.16422 13.1038 1.09251C13.3246 1.02079 13.563 1.0249 13.7812 1.10417C13.991 1.18204 14.1701 1.3254 14.2921 1.51301C14.414 1.70062 14.4723 1.92251 14.4583 2.14583L13.6562 9.58333H19.7917C19.9809 9.58305 20.1666 9.63432 20.3289 9.73164C20.4912 9.82896 20.624 9.96866 20.7128 10.1357C20.8017 10.3028 20.8434 10.4909 20.8335 10.6799C20.8235 10.8689 20.7622 11.0515 20.6562 11.2083L12.4375 23.5C12.3419 23.6414 12.2131 23.7571 12.0624 23.837C11.9116 23.9169 11.7435 23.9586 11.5729 23.9583V23.9583ZM7.15625 13.3333H12.5C12.6454 13.3337 12.789 13.3644 12.9218 13.4236C13.0545 13.4828 13.1734 13.5692 13.2708 13.6771C13.3691 13.7865 13.4432 13.9154 13.488 14.0554C13.5329 14.1955 13.5477 14.3434 13.5312 14.4896L13.0625 18.8125L17.8437 11.6667H12.5C12.353 11.6676 12.2075 11.6373 12.073 11.578C11.9385 11.5186 11.8181 11.4315 11.7198 11.3222C11.6214 11.213 11.5472 11.0842 11.5021 10.9443C11.4571 10.8044 11.4422 10.6565 11.4583 10.5104L11.9271 6.1875L7.15625 13.3333Z" fill="#149211"/>
</svg>
